<svg width="120" height="120" viewBox="0 0 120 120" fill="none" xmlns="http://www.w3.org/2000/svg">
<path d="M96.0508 13.3333H102.704V16.6666H96.0508V13.3333Z" fill="#66757F"/>
<path d="M6.66602 40V106.667C6.66602 114.03 12.636 120 19.9993 120H99.9994C107.363 120 113.333 114.03 113.333 106.667V40H6.66602Z" fill="#CCD6DD"/>
<path d="M99.9994 13.3333H19.9993C12.636 13.3333 6.66602 19.3033 6.66602 26.6666V43.3333H113.333V26.6666C113.333 19.3033 107.363 13.3333 99.9994 13.3333Z" fill="#DD2E44"/>
<path d="M29.4535 29.1034C27.1135 29.1034 25.2168 26.8834 25.2168 24.1401C25.2168 21.4001 27.1135 19.1768 29.4535 19.1768C31.7901 19.1768 33.6868 21.4001 33.6868 24.1401C33.6868 26.8801 31.7901 29.1034 29.4535 29.1034ZM49.4535 29.1034C47.1135 29.1034 45.2168 26.8834 45.2168 24.1401C45.2168 21.4001 47.1135 19.1768 49.4535 19.1768C51.7901 19.1768 53.6868 21.4001 53.6868 24.1401C53.6868 26.8801 51.7901 29.1034 49.4535 29.1034ZM69.4535 29.1034C67.1135 29.1034 65.2168 26.8834 65.2168 24.1401C65.2168 21.4001 67.1135 19.1768 69.4535 19.1768C71.7901 19.1768 73.6901 21.4001 73.6901 24.1401C73.6868 26.8801 71.7901 29.1034 69.4535 29.1034ZM89.4535 29.1034C87.1135 29.1034 85.2168 26.8834 85.2168 24.1401C85.2168 21.4001 87.1135 19.1768 89.4535 19.1768C91.7901 19.1768 93.6901 21.4001 93.6901 24.1401C93.6868 26.8801 91.7901 29.1034 89.4535 29.1034Z" fill="#292F33"/>
<path d="M91.0495 0.59668C86.7928 0.59668 83.1061 3.27001 81.0695 7.16335C79.0495 3.35335 75.3461 0.59668 71.0495 0.59668C66.7928 0.59668 63.1061 3.27001 61.0695 7.16335C59.0495 3.35335 55.3461 0.59668 51.0495 0.59668C46.7928 0.59668 43.1061 3.27001 41.0695 7.16335C39.0495 3.35335 35.3461 0.59668 31.0495 0.59668C24.6028 0.59668 19.3828 6.66001 19.3828 13.9467C19.3828 20.1267 22.8661 25.1833 27.9461 27.0333C30.4761 27.95 32.0261 25.5433 31.8095 23.6133C31.6261 22.0133 30.5628 20.97 29.3795 20.22C27.7628 19.1967 26.0461 16.86 26.0461 13.9633C26.0461 10.2833 28.2828 6.98001 31.0461 6.98001C33.8095 6.98001 36.0461 9.99668 36.0461 13.33H39.4328C39.4228 13.5367 39.3795 13.7333 39.3795 13.9433C39.3795 20.1233 42.8628 25.18 47.9428 27.03C50.4728 27.9467 52.0228 25.54 51.8061 23.61C51.6228 22.0133 50.5595 20.97 49.3761 20.22C47.7595 19.1967 46.0428 16.86 46.0428 13.9633C46.0428 10.2833 48.2795 6.98001 51.0428 6.98001C53.8061 6.98001 56.0495 10 56.0495 13.3333H59.4361C59.4261 13.54 59.3828 13.7367 59.3828 13.9467C59.3828 20.1267 62.8661 25.1833 67.9461 27.0333C70.4761 27.95 72.0261 25.5433 71.8095 23.6133C71.6261 22.0167 70.5628 20.9733 69.3795 20.2233C67.7628 19.2 66.0461 16.8633 66.0461 13.9667C66.0461 10.2867 68.2828 6.98335 71.0461 6.98335C73.8095 6.98335 76.0495 10 76.0495 13.3333H79.4361C79.4261 13.54 79.3828 13.7367 79.3828 13.9467C79.3828 20.1267 82.8661 25.1833 87.9461 27.0333C90.4761 27.95 92.0261 25.5433 91.8095 23.6133C91.6261 22.0167 90.5628 20.9733 89.3795 20.2233C87.7628 19.2 86.0461 16.8633 86.0461 13.9667C86.0461 10.2867 88.2828 6.98335 91.0461 6.98335C93.8095 6.98335 96.0495 10 96.0495 13.3333H102.703C102.633 6.66668 97.4495 0.59668 91.0495 0.59668Z" fill="#66757F"/>
<path d="M36.6667 50H50V63.3333H36.6667V50ZM53.3333 50H66.6667V63.3333H53.3333V50ZM70 50H83.3333V63.3333H70V50ZM86.6667 50H100V63.3333H86.6667V50ZM20 66.6667H33.3333V80H20V66.6667ZM36.6667 66.6667H50V80H36.6667V66.6667ZM53.3333 66.6667H66.6667V80H53.3333V66.6667ZM70 66.6667H83.3333V80H70V66.6667ZM86.6667 66.6667H100V80H86.6667V66.6667ZM20 83.3333H33.3333V96.6667H20V83.3333ZM36.6667 83.3333H50V96.6667H36.6667V83.3333ZM53.3333 83.3333H66.6667V96.6667H53.3333V83.3333ZM70 83.3333H83.3333V96.6667H70V83.3333ZM86.6667 83.3333H100V96.6667H86.6667V83.3333ZM20 100H33.3333V113.333H20V100ZM36.6667 100H50V113.333H36.6667V100ZM53.3333 100H66.6667V113.333H53.3333V100Z" fill="white"/>
</svg>
